<?xml version="1.0" standalone="no"?><!DOCTYPE svg PUBLIC "-//W3C//DTD SVG 1.1//EN" "http://www.w3.org/Graphics/SVG/1.1/DTD/svg11.dtd"><svg t="1620645019710" class="icon" viewBox="0 0 1028 1024" version="1.1" xmlns="http://www.w3.org/2000/svg" p-id="7654" width="32.125" height="32" xmlns:xlink="http://www.w3.org/1999/xlink"><defs><style type="text/css"></style></defs><path d="M846.74133333 178.16C757.25973333 89.1136 638.3296 40.0704 511.79306667 40.0704S266.28266667 89.1136 176.7936 178.15893333 37.97333333 385.7216 37.97333333 511.7504s49.30666667 244.52266667 138.8192 333.6 208.42026667 138.08853333 334.96853334 138.08853333 245.49866667-48.98986667 334.9472-138.08746666 138.8192-207.60533333 138.8192-333.63306667-49.23306667-244.48106667-138.78826667-333.5584z m-98.04373333 367.4368H545.63946667v203.0688c0 18.69226667-15.15306667 33.8464-33.84533334 33.8464s-33.8464-15.15413333-33.8464-33.84533333V545.59573333H274.87786667c-18.69226667 0-33.84533333-15.15306667-33.84533334-33.84533333s15.15306667-33.8464 33.84533334-33.8464h203.0688V274.8448c0-18.69226667 15.15306667-33.84533333 33.84533333-33.84533333 18.6944 0 33.8464 15.15306667 33.8464 33.84533333v203.0688h203.05813333c18.69226667 0 33.84533333 15.15413333 33.84533334 33.84533333s-15.15306667 33.84746667-33.84533334 33.84746667v-0.0096z" fill="#1296db" p-id="7655"></path></svg>