<?xml version="1.0" standalone="no"?><!DOCTYPE svg PUBLIC "-//W3C//DTD SVG 1.1//EN" "http://www.w3.org/Graphics/SVG/1.1/DTD/svg11.dtd"><svg t="1620437547980" class="icon" viewBox="0 0 1024 1024" version="1.1" xmlns="http://www.w3.org/2000/svg" p-id="2881" xmlns:xlink="http://www.w3.org/1999/xlink" width="16" height="16"><defs><style type="text/css"></style></defs><path d="M789.316 383.62c-20.8-21.407-42.936-40.503-65.437-56.68-3.77-2.797-7.055-5.23-10.46-7.297 32.11-16.177 53.273-45.247 53.273-78.816 0-53.03-51.692-93.412-112.872-93.412-14.109 0-27.123 2.433-38.678 6.933-5.838 2.068-9.974 4.014-13.38 6.082-1.702 0.85-6.202-0.365-7.905-2.433-4.622-6.933-11.677-14.96-21.65-23.475-17.393-14.717-37.706-24.326-60.329-26.272-22.744 1.946-43.057 11.555-60.328 26.272-9.974 8.514-17.028 16.542-21.65 23.475-1.703 2.068-6.203 3.284-7.906 2.433-3.284-2.068-7.541-4.014-13.38-6.082-11.676-4.5-24.568-6.933-38.677-6.933-61.18 0-112.873 40.503-112.873 93.412 0 33.57 21.285 62.639 53.274 78.816-3.284 2.067-6.69 4.5-10.46 7.297-22.502 16.177-44.517 35.151-65.437 56.68-60.085 61.788-97.182 133.063-97.182 211.879 0 219.176 168.214 323.535 370.97 323.535h7.542c202.756 0 370.97-104.359 370.97-323.535 0-78.816-36.975-150.091-97.425-211.88zM619.399 584.309h-77.478v29.92h57.166c16.541 0 29.92 13.38 29.92 29.922s-13.379 29.92-29.92 29.92H541.92v45.977c0 16.541-13.38 29.92-29.921 29.92-16.542 0-29.92-13.379-29.92-29.92v-45.976h-59.721c-16.542 0-29.92-13.38-29.92-29.921s13.378-29.921 29.92-29.921h59.72v-29.921h-77.235c-16.541 0-29.92-13.38-29.92-29.921s13.379-29.921 29.92-29.921h35.03l-55.707-55.585c-11.676-11.676-11.676-30.65 0-42.327 11.677-11.676 30.65-11.676 42.327 0l85.628 85.627 85.627-85.627c11.676-11.676 30.65-11.676 42.327 0 11.676 11.677 11.676 30.65 0 42.327L584.37 524.59h35.272c16.542 0 29.921 13.379 29.921 29.92s-13.622 29.8-30.164 29.8z" p-id="2882"></path></svg>