<?xml version="1.0" standalone="no"?><!DOCTYPE svg PUBLIC "-//W3C//DTD SVG 1.1//EN" "http://www.w3.org/Graphics/SVG/1.1/DTD/svg11.dtd"><svg t="1620443889211" class="icon" viewBox="0 0 1025 1024" version="1.1" xmlns="http://www.w3.org/2000/svg" p-id="8471" xmlns:xlink="http://www.w3.org/1999/xlink" width="48.046875" height="48"><defs><style type="text/css"></style></defs><path d="M881.502624 509.807911a270.36985 270.36985 0 0 0 65.203688-48.12142c105.619001-105.619001 105.619001-276.859204 0-382.466276s-276.859204-105.619001-382.466275 0a270.36985 270.36985 0 0 0-48.12142 65.203689zM38.840977 859.12361s-8.445703 6.453567-12.310686 10.318549a90.528868 90.528868 0 0 0 127.997728 128.057373c3.864983-3.864983 10.330478-12.322614 10.330478-12.322615S146.416327 972.305571 140.785858 967.438556c-22.820098-19.599279-65.847852-61.959012-85.089263-85.089263-4.616507-5.49925-16.855619-23.225683-16.855618-23.225683z" p-id="8472" fill="#ffffff"></path><path d="M451.283998 163.310307m42.377679 42.37768l325.230132 325.230131q42.377679 42.377679 0 84.755359l0 0q-42.377679 42.377679-84.755359 0l-325.230132-325.230132q-42.377679-42.377679 0-84.755358l0 0q42.377679-42.377679 84.755359 0Z" p-id="8473" fill="#ffffff"></path><path d="M399.035887 366.624619C361.471595 411.990449 169.057491 644.974942 103.519791 730.624866c-28.629501 37.373428-30.693211 84.814897 1.192896 116.701004l72.528069 72.528069c31.898036 31.898036 80.592045 29.929758 116.701004 1.192896 84.397383-67.13618 318.360051-258.285815 363.964461-295.551882z m-60.670685 362.389838l-0.095431 0.095432a30.251839 30.251839 0 0 1-42.789175 0 30.251839 30.251839 0 0 1 0-42.789175l0.095431-0.095432a30.251839 30.251839 0 0 1 42.789175 0 30.251839 30.251839 0 0 1 0 42.789175z m84.087231-84.08723a30.251839 30.251839 0 0 1-42.789175 0 30.251839 30.251839 0 0 1 0-42.789175l56.674483-56.674484a30.251839 30.251839 0 0 1 42.789175 0 30.251839 30.251839 0 0 1 0 42.789176z" p-id="8474" fill="#ffffff"></path></svg>