<?xml version="1.0" standalone="no"?><!DOCTYPE svg PUBLIC "-//W3C//DTD SVG 1.1//EN" "http://www.w3.org/Graphics/SVG/1.1/DTD/svg11.dtd"><svg t="1624498748364" class="icon" viewBox="0 0 1024 1024" version="1.1" xmlns="http://www.w3.org/2000/svg" p-id="10587" xmlns:xlink="http://www.w3.org/1999/xlink" width="32" height="32"><defs><style type="text/css"></style></defs><path d="M877.714286 1024H146.285714a146.285714 146.285714 0 0 1-146.285714-146.285714V146.285714a146.285714 146.285714 0 0 1 146.285714-146.285714h731.428572a146.285714 146.285714 0 0 1 146.285714 146.285714v731.428572a146.285714 146.285714 0 0 1-146.285714 146.285714zM253.220571 399.506286a56.32 56.32 0 0 0-56.246857 56.32v309.394285a112.64 112.64 0 0 0 112.493715 112.566858h393.874285a112.64 112.64 0 0 0 112.493715-112.566858v-309.394285a56.32 56.32 0 0 0-56.246858-56.32h-56.246857v-56.246857a196.973714 196.973714 0 0 0-393.874285 0v56.246857z m253.220572 323.510857a28.16 28.16 0 0 1-28.16-28.086857V582.436571a28.233143 28.233143 0 0 1 28.16-28.16 28.306286 28.306286 0 0 1 28.086857 28.16v112.493715a28.16 28.16 0 0 1-28.16 28.013714z m140.580571-323.510857H365.714286v-56.246857a140.653714 140.653714 0 0 1 281.307428 0v56.173714z" p-id="10588"></path></svg>
