<?xml version="1.0" standalone="no"?><!DOCTYPE svg PUBLIC "-//W3C//DTD SVG 1.1//EN" "http://www.w3.org/Graphics/SVG/1.1/DTD/svg11.dtd"><svg t="1620640122257" class="icon" viewBox="0 0 1024 1024" version="1.1" xmlns="http://www.w3.org/2000/svg" p-id="6705" width="28" height="28" xmlns:xlink="http://www.w3.org/1999/xlink"><defs><style type="text/css"></style></defs><path d="M591.36 512l416.768-416.768c20.992-20.992 20.992-55.808 0-76.8l-2.048-2.048c-20.992-20.992-55.808-20.992-76.8 0L512 433.664 95.232 15.872c-20.992-20.992-55.808-20.992-76.8 0l-2.048 2.56c-21.504 20.992-21.504 55.808 0 76.8L433.152 512 16.384 929.28c-20.992 20.992-20.992 55.808 0 76.8l2.048 2.048c20.992 20.992 55.808 20.992 76.8 0L512 591.36l416.768 416.768c20.992 20.992 55.808 20.992 76.8 0l2.048-2.048c20.992-20.992 20.992-55.808 0-76.8L591.36 512z" fill="#8C8C8C" p-id="6706"></path></svg>