<svg xmlns="http://www.w3.org/2000/svg" xmlns:xlink="http://www.w3.org/1999/xlink" class="icon" viewBox="0 0 1024 1024" id="icon-pm"><path d="M773 576.62L452 576.62c-26.22 0-47.4-21.18-47.4-47.46 0-26.22 21.18-47.4 47.4-47.4l320.94 0c26.22 0 47.4 21.18 47.4 47.4C820.4 555.44 798.98 576.62 773 576.62L773 576.62 773 576.62 773 576.62zM773 764.3L452 764.3c-26.22 0-47.4-21.18-47.4-47.46 0-26.22 21.18-47.4 47.4-47.4l320.94 0c26.22 0 47.4 21.18 47.4 47.4C820.4 743.12 798.98 764.3 773 764.3L773 764.3 773 764.3 773 764.3zM990.86 919.34L990.86 319.52c0-72.84-66.36-66-66.36-66s-396.18 0.42-375 0C526.88 253.88 515.36 241.58 515.36 241.58S499.64 214.34 471.2 171.56c-29.64-45-64.14-37.74-64.14-37.74L115.34 133.82c-80.88 0-81.72 77.88-81.72 77.88l0 703.8c0 86.76 65.58 76.08 65.58 76.08l831.36 0C1000.76 991.58 990.86 919.34 990.86 919.34L990.86 919.34 990.86 919.34 990.86 919.34zM931.34 883.82c0 26.82-21.6 48.42-48.42 48.42L141.56 932.24c-26.82 0-48.42-21.6-48.42-48.42L93.14 381.68c0-26.82 21.6-48.42 48.42-48.42l741.36 0c26.82 0 48.42 21.6 48.42 48.42L931.34 883.82 931.34 883.82 931.34 883.82zM225.26 529.16c0 27.96 22.68 50.64 50.64 50.64 27.96 0 50.64-22.68 50.64-50.64 0-27.96-22.68-50.64-50.64-50.64C247.94 478.52 225.26 501.2 225.26 529.16L225.26 529.16 225.26 529.16zM225.26 716.9c0 27.96 22.68 50.64 50.64 50.64 27.96 0 50.64-22.68 50.64-50.64 0-27.96-22.68-50.64-50.64-50.64C247.94 666.26 225.26 688.94 225.26 716.9L225.26 716.9 225.26 716.9zM225.26 716.9" p-id="5291"></path></svg>
