<?xml version="1.0" standalone="no"?><!DOCTYPE svg PUBLIC "-//W3C//DTD SVG 1.1//EN" "http://www.w3.org/Graphics/SVG/1.1/DTD/svg11.dtd"><svg t="1620437416501" class="icon" viewBox="0 0 1097 1024" version="1.1" xmlns="http://www.w3.org/2000/svg" p-id="1159" xmlns:xlink="http://www.w3.org/1999/xlink" width="17.140625" height="16"><defs><style type="text/css"></style></defs><path d="M969.142857 219.428571V146.285714a73.142857 73.142857 0 0 0-73.142857-73.142857h-585.142857v146.285714h658.285714z m0 73.142858h-658.285714v438.857142h585.142857a73.142857 73.142857 0 0 0 73.142857-73.142857V292.571429z m-731.428571-219.428572h-73.142857a73.142857 73.142857 0 0 0-73.142858 73.142857v512a73.142857 73.142857 0 0 0 73.142858 73.142857h73.142857V73.142857z m365.714285 731.428572v146.285714h219.428572v73.142857h-585.142857v-73.142857h219.428571v-146.285714h-292.571428a146.285714 146.285714 0 0 1-146.285715-146.285715V146.285714a146.285714 146.285714 0 0 1 146.285715-146.285714h731.428571a146.285714 146.285714 0 0 1 146.285714 146.285714v512a146.285714 146.285714 0 0 1-146.285714 146.285715h-292.571429z m-73.142857-292.571429a36.571429 36.571429 0 0 1 36.571429 36.571429v73.142857a36.571429 36.571429 0 0 1-73.142857 0v-73.142857a36.571429 36.571429 0 0 1 36.571428-36.571429z" p-id="1160" fill="#ffffff"></path></svg>