<?xml version="1.0" standalone="no"?><!DOCTYPE svg PUBLIC "-//W3C//DTD SVG 1.1//EN" "http://www.w3.org/Graphics/SVG/1.1/DTD/svg11.dtd"><svg t="1624416497967" class="icon" viewBox="0 0 1024 1024" version="1.1" xmlns="http://www.w3.org/2000/svg" p-id="3758" xmlns:xlink="http://www.w3.org/1999/xlink" width="32" height="32"><defs><style type="text/css"></style></defs><path d="M734.57 375.297a4.93 4.93 0 0 0 1.237-5.418 4.927 4.927 0 0 0-4.593-3.134H593.81l0.296-224.814a14.743 14.743 0 0 0-4.329-10.48 14.76 14.76 0 0 0-10.477-4.345H444.723c-3.788 0-7.582 1.45-10.477 4.345a14.765 14.765 0 0 0-4.325 10.48l0.274 224.814H292.786a4.937 4.937 0 0 0-4.594 3.134 4.928 4.928 0 0 0 1.24 5.418L501.93 572.349a14.778 14.778 0 0 0 10.067 3.95 14.77 14.77 0 0 0 10.068-3.95l212.504-197.052z" fill="#333333" p-id="3759"></path><path d="M946.222 625.46L813 522.537c-7.548-5.888-21.555-10.706-31.126-10.706h-77.132L832.32 639.58l-128.003-0.087-64.342 92.867H383.46l-63.664-92.867-126.724 0.256L320.65 511.83h-78.573c-9.572 0-23.58 4.818-31.127 10.706L77.727 625.46c-7.547 5.889-11.288 18.151-8.315 27.25l53.147 162.623c2.974 9.1 13.239 16.544 22.811 16.544h734.235c9.572 0 19.802-7.456 22.734-16.569l52.278-162.572c2.929-9.113-0.848-21.387-8.395-27.276z" fill="#333333" p-id="3760"></path></svg>