<svg xmlns="http://www.w3.org/2000/svg" xmlns:xlink="http://www.w3.org/1999/xlink" class="icon" viewBox="0 0 1024 1024" id="icon-finance"><path d="M839.40693333 276.39808H184.59185303c-24.0723437 0-43.58629452-19.51516445-43.58629451-43.58629452 0-24.0723437 19.51395082-43.58629452 43.58629451-43.58629451h654.8150803c24.07113008 0 43.58629452 19.51395082 43.58629452 43.58629451 0 24.07113008-19.51395082 43.58629452-43.58629452 43.58629452zM777.19263763 134.00777008H246.80736237c-24.07113008 0-43.58629452-19.51395082-43.58629452-43.5850809 0-24.0723437 19.51516445-43.58629452 43.58629452-43.58629451h530.38527526c24.06991645 0 43.58629452 19.51395082 43.58629452 43.58629451 0 24.07113008-19.51516445 43.58508089-43.58629452 43.5850809zM981.94409245 464.9330157c0-67.01662815-54.51988385-121.50010311-121.49646223-121.50010311H163.55236978c-66.99721008 0-121.49767585 54.50046578-121.49767586 121.49888949V855.66350222c0 66.9984237 54.50046578 121.49888948 121.49646223 121.49888948h696.89526044c66.977792 0 121.49888948-54.50046578 121.49888949-121.49888948V464.9330157zM549.38950163 619.94386015l85.71866074-0.0776723c22.00553245 0.02305897 39.87258785 16.52963555 39.91385126 36.82759112 0.05097245 20.28946015-17.72263348 36.71350992-39.75001126 36.66981925l-85.81211022 0.07888593 0.0449043 44.95162785 85.60943407-0.08009955c22.00310518 0.0449043 39.87016059 16.52963555 39.911424 36.8275911 0.05097245 20.28946015-17.72506075 36.71593718-39.75001127 36.66860563l-85.72351525 0.08009957 0.04854518 44.54748917c-0.04611792 21.51401245-16.908288 38.97935645-37.69897718 39.02426075-20.74578489 0.0449043-37.56062341-17.34276741-37.51207822-38.85435259l-0.04854519-44.63729778-85.54025718 0.06796325c-21.9994643-0.02669985-39.89200592-16.5272083-39.91263763-36.83244563-0.0449043-20.28460563 17.75661511-36.7122963 39.73423407-36.667392l85.65312474-0.07645867-0.04854518-44.93827792-85.426176 0.07039052c-21.9994643-0.04854518-39.89200592-16.53206282-39.91263763-36.831232-0.0449043-20.28946015 17.75661511-36.71350992 39.73423407-36.66860563l85.5366163-0.08980859V603.42272l-114.04963082-111.77043437c-15.62912237-15.21163378-15.62912237-39.88715141 0-55.10606696 15.64975408-15.21163378 41.00854518-15.21163378 56.65951289 0l95.22016711 93.35117748 95.27235319-93.35360474c15.62790875-15.21284741 40.98791348-15.21284741 56.61824948 0 15.64368592 15.21891555 15.64368592 39.89443318 0 55.10606696l-114.5120237 112.23646815 0.02184533 16.05632z" p-id="5645"></path></svg>
