<?xml version="1.0" standalone="no"?><!DOCTYPE svg PUBLIC "-//W3C//DTD SVG 1.1//EN" "http://www.w3.org/Graphics/SVG/1.1/DTD/svg11.dtd"><svg t="1620437482665" class="icon" viewBox="0 0 1024 1024" version="1.1" xmlns="http://www.w3.org/2000/svg" p-id="2104" xmlns:xlink="http://www.w3.org/1999/xlink" width="16" height="16"><defs><style type="text/css"></style></defs><path d="M288.256 800.768c0-26.624-22.528-49.152-49.152-44.544H104.96c-17.92 0-35.84 8.704-44.544 22.528-8.704 15.36-8.704 33.792 0 49.152 8.704 13.312 26.624 22.528 44.544 22.528h134.144c22.016-5.12 44.544-23.04 49.152-49.664zM100.352 286.208h134.144c17.92 0 35.84-8.704 44.544-22.528 8.704-15.36 8.704-33.792 0-49.152-8.704-13.312-26.624-22.528-44.544-22.528H100.352c-17.92 0-35.84 8.704-44.544 22.528-8.704 15.36-8.704 33.792 0 49.152 13.312 13.824 26.624 22.528 44.544 22.528zM51.2 518.656c0 26.624 22.528 49.152 49.152 44.544h134.144c17.92 0 35.84-8.704 44.544-22.528 8.704-15.36 8.704-33.792 0-49.152-8.704-13.312-26.624-22.528-44.544-22.528H100.352c-27.136 1.024-49.152 23.04-49.152 49.664z m894.464 438.272v-880.64c0-26.624-31.232-49.152-71.68-49.152H194.048c-13.312-0.512-26.112 4.608-35.84 13.312-8.192 8.704-12.8 19.456-13.312 31.232v71.68h93.696c26.624 0 49.152 8.704 67.072 26.624s26.624 40.448 26.624 67.072-8.704 49.152-26.624 67.072-44.544 26.624-67.072 26.624H144.896V424.96h93.696C292.864 424.96 332.8 465.408 332.8 518.656c0 53.76-40.448 93.696-93.696 93.696H144.896V706.56h93.696c53.76 0 93.696 44.544 93.696 93.696 0 53.76-40.448 93.696-93.696 93.696H144.896v71.68c0 13.312 4.608 26.624 13.312 35.84 8.704 4.608 22.528 8.704 35.84 8.704h679.424c40.448 0.512 72.192-22.016 72.192-53.248z m-143.36-509.44v71.68H686.08v71.68h116.224v71.68H686.08V778.24h-93.696v-116.224H476.16v-71.68h116.224v-71.68H476.16v-71.68h93.696L453.632 259.584h93.696L641.536 424.96l93.696-165.376h93.696l-116.224 187.904h89.6z" p-id="2105"></path></svg>