<?xml version="1.0" standalone="no"?><!DOCTYPE svg PUBLIC "-//W3C//DTD SVG 1.1//EN" "http://www.w3.org/Graphics/SVG/1.1/DTD/svg11.dtd"><svg t="1623052519808" class="icon" viewBox="0 0 1024 1024" version="1.1" xmlns="http://www.w3.org/2000/svg" p-id="2747" width="32" height="32" xmlns:xlink="http://www.w3.org/1999/xlink"><defs><style type="text/css"></style></defs><path d="M512 762.055111c-68.807111 0-124.558222 57.713778-124.558222 128.910222s55.751111 128.910222 124.558222 128.910223 124.558222-57.713778 124.558222-128.910223-55.751111-128.910222-124.558222-128.910222z m0 200.96c-37.319111 0-67.669333-32.312889-67.669333-72.021333s30.350222-72.021333 67.669333-72.021334 67.669333 32.312889 67.669333 72.021334-30.350222 72.021333-67.669333 72.021333zM124.558222 765.582222C55.808 765.582222 0 823.239111 0 894.464s55.808 128.967111 124.558222 128.967111 124.643556-57.742222 124.643556-128.967111S193.422222 765.582222 124.558222 765.582222z m0 200.96C87.239111 966.542222 56.888889 934.200889 56.888889 894.464s30.350222-71.992889 67.669333-71.992889 67.754667 32.284444 67.754667 71.992889-30.407111 72.078222-67.754667 72.078222zM899.441778 766.094222c-68.835556 0-124.643556 57.742222-124.643556 128.881778S830.577778 1024 899.441778 1024 1024 966.200889 1024 894.976s-55.808-128.881778-124.558222-128.881778z m0 200.96c-37.347556 0-67.754667-32.341333-67.754667-72.078222s30.407111-71.992889 67.754667-71.992889S967.111111 855.296 967.111111 894.976 936.760889 967.111111 899.441778 967.111111zM124.586667 748.885333a28.444444 28.444444 0 0 0 28.444444-28.444444v-114.830222c0-54.300444 32.995556-98.503111 73.557333-98.503111H483.555556v213.333333a28.444444 28.444444 0 0 0 56.888888 0v-213.333333h270.051556c40.561778 0 73.557333 44.174222 73.557333 98.503111v114.830222a28.444444 28.444444 0 0 0 56.888889 0v-114.830222c0-85.674667-58.510222-155.392-130.446222-155.392H540.444444V254.435556c55.068444-13.312 96.113778-64.426667 96.113778-125.496889C636.558222 57.685333 580.807111 0 512 0s-124.558222 57.685333-124.558222 128.910222c0 61.070222 41.016889 112.184889 96.113778 125.496889v195.783111H226.588444c-71.936 0-130.446222 69.717333-130.446222 155.392v114.830222a28.444444 28.444444 0 0 0 28.444445 28.472889z m319.744-620.088889c0-39.822222 30.350222-72.021333 67.669333-72.021333s67.669333 32.312889 67.669333 72.021333S549.319111 200.96 512 200.96s-67.669333-32.312889-67.669333-72.049778z" p-id="2748"></path></svg>