<?xml version="1.0" standalone="no"?><!DOCTYPE svg PUBLIC "-//W3C//DTD SVG 1.1//EN" "http://www.w3.org/Graphics/SVG/1.1/DTD/svg11.dtd"><svg t="1620632531634" class="icon" viewBox="0 0 1024 1024" version="1.1" xmlns="http://www.w3.org/2000/svg" p-id="5947" xmlns:xlink="http://www.w3.org/1999/xlink" width="30" height="30"><defs><style type="text/css"></style></defs><path d="M659.689 391.012c-9.374 13.596-10.305 32.368-9.104 47.103h-101.307c-9.536-66.713-66.626-118.238-136.039-118.772-76.495-0.59-138.988 60.969-139.578 137.493-0.592 76.525 60.942 139.040 137.438 139.629 8.78 0.067 17.372-0.693 25.71-2.191v98.706c-5.21-0.087-9.994 0.090-13.867 0.478-39.849 4-31.020 59.347-54.78 69.347-27.563 11.6-72.22-3.46-85.011-29.727-7.854-16.125 16.486-36.63-1.429-65.904-7.21-11.78-20.646-31.979-34.57-39.027-23.861-12.081-42.946 8.746-73.747 16.874-16.793 4.432-35.26-30.311-40.352-42.948-11.755-29.169-14.659-38.934 23.74-63.773 22.906-14.816 22.319-59.366 18.063-81.258-2.222-11.435-20.295-19.958-38.563-23.554-30.525-6.007-49.984-44.139-6.971-100.832 14.525-19.143 40.279 14.499 75.58-3.293 9.467-4.772 41.67-25.764 42.992-48.119 1.714-28.987-20.768-43.563-20.876-56.364-0.252-30.27 44.323-54.143 60.485-55.737 33.158-3.268 34.485 30.966 61.631 46.988 22.17 13.085 51.827 10.736 65.819 6.322 19.493-6.149 20.963-54.474 41.189-65.575 26.089-14.32 71.938 5.435 85.071 21.974 7.511 9.46-7.473 34.268-6.23 54.218 1.269 20.402 24.042 39.069 32.572 46.765 44.021 39.709 70.996-13.718 93.029-5.098 24.043 9.409 43.915 49.425 42.049 73.969-1.598 21.045-21.934 11.835-42.946 42.307z" p-id="5948"></path><path d="M505.015 495.9c12.556 0 22.735 10.178 22.735 22.735 0 12.556-10.178 22.735-22.735 22.735-12.556 0-22.735-10.178-22.735-22.735 0-12.557 10.178-22.735 22.735-22.735z" p-id="5949"></path><path d="M568.010 495.9h337.237c12.295 0 22.261 9.967 22.261 22.261v0.947c0 12.295-9.967 22.261-22.261 22.261h-337.237c-12.295 0-22.261-9.967-22.261-22.261v-0.947c0-12.295 9.967-22.261 22.261-22.261z" p-id="5950"></path><path d="M505.015 627.574c12.556 0 22.735 10.178 22.735 22.735 0 12.556-10.178 22.735-22.735 22.735-12.556 0-22.735-10.178-22.735-22.735 0-12.557 10.178-22.735 22.735-22.735z" p-id="5951"></path><path d="M568.010 627.574h337.237c12.295 0 22.261 9.967 22.261 22.261v0.947c0 12.295-9.967 22.261-22.261 22.261h-337.237c-12.295 0-22.261-9.967-22.261-22.261v-0.947c0-12.295 9.967-22.261 22.261-22.261z" p-id="5952"></path><path d="M505.015 759.248c12.556 0 22.735 10.178 22.735 22.735s-10.178 22.735-22.735 22.735c-12.556 0-22.735-10.178-22.735-22.735s10.178-22.735 22.735-22.735z" p-id="5953"></path><path d="M568.010 759.248h337.237c12.295 0 22.261 9.967 22.261 22.261v0.947c0 12.295-9.967 22.261-22.261 22.261h-337.237c-12.295 0-22.261-9.967-22.261-22.261v-0.947c0-12.295 9.967-22.261 22.261-22.261z" p-id="5954"></path></svg>