<?xml version="1.0" standalone="no"?><!DOCTYPE svg PUBLIC "-//W3C//DTD SVG 1.1//EN" "http://www.w3.org/Graphics/SVG/1.1/DTD/svg11.dtd"><svg t="1624433358182" class="icon" viewBox="0 0 1217 1024" version="1.1" xmlns="http://www.w3.org/2000/svg" p-id="23727" xmlns:xlink="http://www.w3.org/1999/xlink" width="38.03125" height="32"><defs><style type="text/css"></style></defs><path d="M691.891892 327.375568C691.891892 161.792 567.628108 27.675676 414.830703 27.675676 262.005622 27.675676 138.378378 161.792 138.378378 327.375568c0 120.250811 65.951135 223.508757 160.408217 271.36V664.216216h233.305946v-65.480648C626.577297 550.884324 691.891892 447.626378 691.891892 327.375568z" p-id="23728"></path><path d="M778.156973 1024c1.85427-14.778811 3.099676-30.166486 3.099676-45.581838 0-202.724324-174.578162-366.619676-390.310054-366.619676S0 775.693838 0 978.418162c0 15.387676 1.245405 30.166486 3.127351 45.581838h775.029622zM1098.004757 0h-478.235676v52.362378h478.235676c39.299459 0 66.698378 20.950486 66.698378 40.046703v837.936433c0 19.096216-27.398919 40.046703-66.698378 40.046702H828.056216v52.362379h269.976216c67.334919 0 119.724973-40.655568 119.724973-93.017946V93.045622C1218.338595 41.292108 1165.339676 0 1098.004757 0z"  p-id="23729"></path><path d="M1107.027027 267.153297c0 10.406054-8.38573 18.957838-18.072216 18.957838H709.964108c-10.323027 0-18.072216-8.579459-18.072216-18.957838V212.687568c0-10.406054 8.38573-18.957838 18.072216-18.957838h378.990703c10.323027 0 18.072216 8.579459 18.072216 18.957838v54.465729z m0 189.024865c0 10.43373-8.38573 18.985514-18.072216 18.985514H709.964108c-10.323027 0-18.072216-8.579459-18.072216-18.957838v-54.46573c0-10.406054 8.38573-18.957838 18.072216-18.957838h378.990703c10.323027 0 18.072216 8.579459 18.072216 18.957838v54.46573z m0 189.080216c0 10.406054-6.448432 18.957838-14.197622 18.957838H799.716324c-7.749189 0-14.197622-8.579459-14.197621-18.957838v-54.465729c0-10.406054 6.448432-18.957838 14.197621-18.957838h293.085406c7.749189 0 14.225297 8.579459 14.225297 18.957838v54.465729z" p-id="23730"></path></svg>
