<?xml version="1.0" standalone="no"?><!DOCTYPE svg PUBLIC "-//W3C//DTD SVG 1.1//EN" "http://www.w3.org/Graphics/SVG/1.1/DTD/svg11.dtd"><svg t="1620444023504" class="icon" viewBox="0 0 1024 1024" version="1.1" xmlns="http://www.w3.org/2000/svg" p-id="13670" xmlns:xlink="http://www.w3.org/1999/xlink" width="48" height="48"><defs><style type="text/css"></style></defs><path d="M370.688 512h306.688v55.808h41.984V473.6h-71.68c7.168-12.8 12.288-24.576 15.872-34.816 7.168 0 10.24-1.536 10.24-5.12 0-4.608-2.56-7.168-7.168-7.168l-41.984-12.288c-4.608 20.992-12.8 40.448-24.576 59.392h-54.272v-47.104c7.168-1.024 10.24-3.584 10.24-7.168 0-4.608-3.072-7.168-8.704-7.168l-45.056-1.536v62.976H433.664l24.576-15.872c-13.824-17.408-26.624-31.744-38.4-43.52l-34.816 24.576 5.12 5.12c10.24 12.8 17.408 22.528 20.992 29.696h-81.92v94.208h41.984l-0.512-55.808z" p-id="13671" fill="#ffffff"></path><path d="M395.264 532.48v95.744h258.048V532.48H395.264z m216.064 60.928h-174.08v-26.112h174.08v26.112zM689.664 752.128v-100.864H365.568v100.864h43.52v-62.976h237.056v62.976z" p-id="13672" fill="#ffffff"></path><path d="M513.536 768c45.056 9.216 104.96 24.576 179.2 45.056l27.648-36.352c-40.448-9.216-99.84-21.504-177.664-36.352 1.024-2.048 3.072-5.12 5.12-8.704 1.024-3.584 2.048-5.632 3.584-7.168 8.192 0 12.288-2.56 12.288-7.168 0-3.584-3.584-5.632-10.24-7.168l-43.52-7.168c-9.216 45.056-71.68 66.56-186.368 64.512 12.8 12.8 18.944 26.112 18.944 39.936 84.992-2.048 141.824-15.36 171.008-39.424z" p-id="13673" fill="#ffffff"></path><path d="M946.176 266.752H706.56c68.096-42.496 108.544-100.864 108.544-139.776 0-15.36-6.144-29.184-16.896-38.4-10.24-8.704-24.064-13.312-40.448-13.312-142.848 0-212.48 77.824-245.248 139.776-32.768-61.952-102.4-139.776-245.248-139.776-16.896 0-30.208 4.608-40.448 13.312-10.752 9.216-16.384 23.04-16.384 38.4 0 38.912 40.448 97.28 108.544 139.776H79.872c-15.36 0-27.648 12.288-27.648 27.648V506.88c0 15.36 12.288 27.648 27.648 27.648h24.064v402.944c0 15.36 12.288 27.648 27.648 27.648h762.368c15.36 0 27.648-12.288 27.648-27.648v-402.944h24.064c15.36 0 27.648-12.288 27.648-27.648V294.4c0.512-15.36-12.288-27.648-27.136-27.648z m-186.368-140.288c0.512 3.072-2.048 18.432-23.552 43.008-33.792 39.424-100.352 84.48-185.856 94.72 18.944-49.152 71.68-135.168 209.408-137.728z m-470.528 43.008c-20.48-24.064-24.064-39.424-22.016-39.424 136.192 0 188.928 84.992 207.872 134.144-84.992-10.24-152.064-55.296-185.856-94.72z m629.248 309.76l-23.552 0.512h-31.744v52.224l3.072 377.344-705.536-2.048V479.232H107.52V322.048h811.008v157.184z" p-id="13674" fill="#ffffff"></path></svg>