<svg t="1620352234670" class="icon" viewBox="0 0 1024 1024"
version="1.1" xmlns="http://www.w3.org/2000/svg" p-id="1959" width="16" height="16">
<path d="M916.626003 326.119766c-33.528678-86.671229-217.94587-110.157302-172.95197 4.228285 14.707824 37.392278 48.946951 100.054489 88.642594 176.695154 26.520529 51.205591 193.845681 61.568156 159.907592-26.830167-12.325329-32.107782-75.598216-154.093271-75.598216-154.093272z" fill="#00A0E9" p-id="1960"></path><path d="M418.137419 715.054844c-50.489982-112.754824-145.45264-358.07961-188.249828-474.068436-48.995117-132.759185-241.669333-96.473005-203.040221 6.903216C44.168198 294.237332 249.035286 810.151678 261.878399 834.884905c18.06052 20.823183 48.527219 40.566071 88.990077 34.576289 94.505081-13.983614 139.602194-137.648032 152.939008-227.341676 11.177946 12.158468 57.89378 143.584488 70.236311 171.496669 35.630779 80.581674 220.355889 63.787231 185.459641-36.805684-19.388525-55.87425-160.941441-419.154065-201.669211-512.891931-35.658302-82.074819-217.503776-89.783095-170.442179 29.658198 8.46861 21.499226 59.168458 189.008441 61.194869 210.20147 4.747789 49.66944-5.129676 178.040361-30.449496 211.276604z" fill="#E4007F" p-id="1961">
</path>
</svg>
